<mxfile host="drawio-plugin" agent="Mozilla/5.0 (Windows NT 10.0; Win64; x64) AppleWebKit/537.36 (KHTML, like Gecko) Chrome/122.0.0.0 Safari/537.36" modified="2025-07-06T08:36:10.297Z" version="22.1.22" etag="xY53AbEaRwMFNjQE0R-T" type="embed">
  <diagram name="Страница — 1" id="IB3hmVz5Mjldi7dOJ7lX">
    <mxGraphModel dx="814" dy="470" grid="1" gridSize="10" guides="1" tooltips="1" connect="1" arrows="1" fold="1" page="1" pageScale="1" pageWidth="827" pageHeight="1169" math="0" shadow="0">
      <root>
        <mxCell id="0" />
        <mxCell id="1" parent="0" />
        <mxCell id="Ph2_vFc4Ig8jfNf9v6nr-14" style="edgeStyle=orthogonalEdgeStyle;rounded=0;orthogonalLoop=1;jettySize=auto;html=1;exitX=1;exitY=0.5;exitDx=0;exitDy=0;entryX=0;entryY=0.5;entryDx=0;entryDy=0;" parent="1" source="Ph2_vFc4Ig8jfNf9v6nr-1" target="Ph2_vFc4Ig8jfNf9v6nr-11" edge="1">
          <mxGeometry relative="1" as="geometry" />
        </mxCell>
        <mxCell id="Ph2_vFc4Ig8jfNf9v6nr-1" value="&lt;span style=&quot;background-color: light-dark(#ffffff, var(--ge-dark-color, #121212));&quot;&gt;Недостаток CPU/RAM&lt;/span&gt;" style="rounded=0;whiteSpace=wrap;html=1;" parent="1" vertex="1">
          <mxGeometry x="80" y="160" width="120" height="40" as="geometry" />
        </mxCell>
        <mxCell id="Ph2_vFc4Ig8jfNf9v6nr-16" style="edgeStyle=orthogonalEdgeStyle;rounded=0;orthogonalLoop=1;jettySize=auto;html=1;exitX=1;exitY=0.5;exitDx=0;exitDy=0;entryX=0;entryY=0.5;entryDx=0;entryDy=0;" parent="1" source="Ph2_vFc4Ig8jfNf9v6nr-2" target="Ph2_vFc4Ig8jfNf9v6nr-11" edge="1">
          <mxGeometry relative="1" as="geometry" />
        </mxCell>
        <mxCell id="Ph2_vFc4Ig8jfNf9v6nr-2" value="&lt;span style=&quot;&quot;&gt;Физический сервер&lt;/span&gt;" style="rounded=0;whiteSpace=wrap;html=1;strokeColor=default;labelBackgroundColor=default;" parent="1" vertex="1">
          <mxGeometry x="80" y="240" width="120" height="40" as="geometry" />
        </mxCell>
        <mxCell id="Ph2_vFc4Ig8jfNf9v6nr-17" style="edgeStyle=orthogonalEdgeStyle;rounded=0;orthogonalLoop=1;jettySize=auto;html=1;exitX=1;exitY=0.5;exitDx=0;exitDy=0;entryX=0;entryY=0.5;entryDx=0;entryDy=0;" parent="1" source="Ph2_vFc4Ig8jfNf9v6nr-3" target="Ph2_vFc4Ig8jfNf9v6nr-12" edge="1">
          <mxGeometry relative="1" as="geometry" />
        </mxCell>
        <mxCell id="Ph2_vFc4Ig8jfNf9v6nr-3" value="&lt;span style=&quot;background-color: rgb(222, 222, 222);&quot;&gt;Монолитная связность&lt;/span&gt;" style="rounded=0;whiteSpace=wrap;html=1;" parent="1" vertex="1">
          <mxGeometry x="80" y="320" width="120" height="40" as="geometry" />
        </mxCell>
        <mxCell id="Ph2_vFc4Ig8jfNf9v6nr-19" style="edgeStyle=orthogonalEdgeStyle;rounded=0;orthogonalLoop=1;jettySize=auto;html=1;exitX=1;exitY=0.5;exitDx=0;exitDy=0;entryX=0;entryY=0.5;entryDx=0;entryDy=0;" parent="1" source="Ph2_vFc4Ig8jfNf9v6nr-4" target="Ph2_vFc4Ig8jfNf9v6nr-12" edge="1">
          <mxGeometry relative="1" as="geometry" />
        </mxCell>
        <mxCell id="Ph2_vFc4Ig8jfNf9v6nr-4" value="&lt;span style=&quot;&quot;&gt;Нет тестов&lt;/span&gt;" style="rounded=0;whiteSpace=wrap;html=1;labelBackgroundColor=default;" parent="1" vertex="1">
          <mxGeometry x="80" y="400" width="120" height="40" as="geometry" />
        </mxCell>
        <mxCell id="Ph2_vFc4Ig8jfNf9v6nr-21" style="edgeStyle=orthogonalEdgeStyle;rounded=0;orthogonalLoop=1;jettySize=auto;html=1;exitX=1;exitY=0.5;exitDx=0;exitDy=0;entryX=0;entryY=0.5;entryDx=0;entryDy=0;" parent="1" source="Ph2_vFc4Ig8jfNf9v6nr-5" target="Ph2_vFc4Ig8jfNf9v6nr-12" edge="1">
          <mxGeometry relative="1" as="geometry" />
        </mxCell>
        <mxCell id="Ph2_vFc4Ig8jfNf9v6nr-5" value="&lt;span style=&quot;&quot;&gt;Сложная декопмозиция&lt;/span&gt;" style="rounded=0;whiteSpace=wrap;html=1;labelBackgroundColor=default;" parent="1" vertex="1">
          <mxGeometry x="80" y="480" width="120" height="40" as="geometry" />
        </mxCell>
        <mxCell id="Ph2_vFc4Ig8jfNf9v6nr-22" style="edgeStyle=orthogonalEdgeStyle;rounded=0;orthogonalLoop=1;jettySize=auto;html=1;exitX=1;exitY=0.5;exitDx=0;exitDy=0;entryX=0;entryY=0.5;entryDx=0;entryDy=0;" parent="1" source="Ph2_vFc4Ig8jfNf9v6nr-8" target="Ph2_vFc4Ig8jfNf9v6nr-13" edge="1">
          <mxGeometry relative="1" as="geometry" />
        </mxCell>
        <mxCell id="Ph2_vFc4Ig8jfNf9v6nr-8" value="&lt;span style=&quot;&quot;&gt;SOAP/FTP&lt;/span&gt;" style="rounded=0;whiteSpace=wrap;html=1;labelBackgroundColor=default;" parent="1" vertex="1">
          <mxGeometry x="80" y="560" width="120" height="40" as="geometry" />
        </mxCell>
        <mxCell id="Ph2_vFc4Ig8jfNf9v6nr-24" style="edgeStyle=orthogonalEdgeStyle;rounded=0;orthogonalLoop=1;jettySize=auto;html=1;exitX=1;exitY=0.5;exitDx=0;exitDy=0;entryX=0;entryY=0.5;entryDx=0;entryDy=0;" parent="1" source="Ph2_vFc4Ig8jfNf9v6nr-9" target="Ph2_vFc4Ig8jfNf9v6nr-13" edge="1">
          <mxGeometry relative="1" as="geometry" />
        </mxCell>
        <mxCell id="Ph2_vFc4Ig8jfNf9v6nr-9" value="&lt;span style=&quot;&quot;&gt;Сильная связность&lt;/span&gt;" style="rounded=0;whiteSpace=wrap;html=1;labelBackgroundColor=default;" parent="1" vertex="1">
          <mxGeometry x="80" y="640" width="120" height="40" as="geometry" />
        </mxCell>
        <mxCell id="Ph2_vFc4Ig8jfNf9v6nr-25" style="edgeStyle=orthogonalEdgeStyle;rounded=0;orthogonalLoop=1;jettySize=auto;html=1;exitX=1;exitY=0.5;exitDx=0;exitDy=0;entryX=0;entryY=0.5;entryDx=0;entryDy=0;" parent="1" source="Ph2_vFc4Ig8jfNf9v6nr-10" target="Ph2_vFc4Ig8jfNf9v6nr-13" edge="1">
          <mxGeometry relative="1" as="geometry" />
        </mxCell>
        <mxCell id="Ph2_vFc4Ig8jfNf9v6nr-10" value="&lt;span style=&quot;&quot;&gt;Нет retry/fallback&lt;/span&gt;" style="rounded=0;whiteSpace=wrap;html=1;labelBackgroundColor=default;" parent="1" vertex="1">
          <mxGeometry x="80" y="720" width="120" height="40" as="geometry" />
        </mxCell>
        <mxCell id="Ph2_vFc4Ig8jfNf9v6nr-48" style="edgeStyle=orthogonalEdgeStyle;rounded=0;orthogonalLoop=1;jettySize=auto;html=1;exitX=1;exitY=0.5;exitDx=0;exitDy=0;entryX=0;entryY=0.5;entryDx=0;entryDy=0;" parent="1" source="Ph2_vFc4Ig8jfNf9v6nr-11" target="Ph2_vFc4Ig8jfNf9v6nr-47" edge="1">
          <mxGeometry relative="1" as="geometry" />
        </mxCell>
        <mxCell id="Ph2_vFc4Ig8jfNf9v6nr-11" value="&lt;span style=&quot;background-color: light-dark(#ffffff, var(--ge-dark-color, #121212));&quot;&gt;Инфраструктура&lt;/span&gt;" style="ellipse;whiteSpace=wrap;html=1;" parent="1" vertex="1">
          <mxGeometry x="280" y="190" width="120" height="50" as="geometry" />
        </mxCell>
        <mxCell id="Ph2_vFc4Ig8jfNf9v6nr-49" style="edgeStyle=orthogonalEdgeStyle;rounded=0;orthogonalLoop=1;jettySize=auto;html=1;exitX=1;exitY=0.5;exitDx=0;exitDy=0;entryX=0;entryY=0.5;entryDx=0;entryDy=0;" parent="1" source="Ph2_vFc4Ig8jfNf9v6nr-12" target="Ph2_vFc4Ig8jfNf9v6nr-47" edge="1">
          <mxGeometry relative="1" as="geometry" />
        </mxCell>
        <mxCell id="Ph2_vFc4Ig8jfNf9v6nr-12" value="&lt;span style=&quot;background-color: light-dark(#ffffff, var(--ge-dark-color, #121212));&quot;&gt;Программное обеспеченье&lt;/span&gt;" style="ellipse;whiteSpace=wrap;html=1;" parent="1" vertex="1">
          <mxGeometry x="280" y="395" width="120" height="50" as="geometry" />
        </mxCell>
        <mxCell id="Ph2_vFc4Ig8jfNf9v6nr-51" style="edgeStyle=orthogonalEdgeStyle;rounded=0;orthogonalLoop=1;jettySize=auto;html=1;exitX=1;exitY=0.5;exitDx=0;exitDy=0;entryX=0;entryY=0.5;entryDx=0;entryDy=0;" parent="1" source="Ph2_vFc4Ig8jfNf9v6nr-13" target="Ph2_vFc4Ig8jfNf9v6nr-47" edge="1">
          <mxGeometry relative="1" as="geometry" />
        </mxCell>
        <mxCell id="Ph2_vFc4Ig8jfNf9v6nr-13" value="&lt;span style=&quot;background-color: light-dark(#ffffff, var(--ge-dark-color, #121212));&quot;&gt;Интеграция&lt;/span&gt;" style="ellipse;whiteSpace=wrap;html=1;" parent="1" vertex="1">
          <mxGeometry x="280" y="635" width="120" height="50" as="geometry" />
        </mxCell>
        <mxCell id="Ph2_vFc4Ig8jfNf9v6nr-26" style="edgeStyle=orthogonalEdgeStyle;rounded=0;orthogonalLoop=1;jettySize=auto;html=1;exitX=1;exitY=0.5;exitDx=0;exitDy=0;entryX=0;entryY=0.5;entryDx=0;entryDy=0;" parent="1" source="Ph2_vFc4Ig8jfNf9v6nr-27" target="Ph2_vFc4Ig8jfNf9v6nr-32" edge="1">
          <mxGeometry relative="1" as="geometry" />
        </mxCell>
        <mxCell id="Ph2_vFc4Ig8jfNf9v6nr-27" value="&lt;span style=&quot;&quot;&gt;РУчной деплой&lt;/span&gt;" style="rounded=0;whiteSpace=wrap;html=1;labelBackgroundColor=default;" parent="1" vertex="1">
          <mxGeometry x="80" y="800" width="120" height="40" as="geometry" />
        </mxCell>
        <mxCell id="Ph2_vFc4Ig8jfNf9v6nr-28" style="edgeStyle=orthogonalEdgeStyle;rounded=0;orthogonalLoop=1;jettySize=auto;html=1;exitX=1;exitY=0.5;exitDx=0;exitDy=0;entryX=0;entryY=0.5;entryDx=0;entryDy=0;" parent="1" source="Ph2_vFc4Ig8jfNf9v6nr-29" target="Ph2_vFc4Ig8jfNf9v6nr-32" edge="1">
          <mxGeometry relative="1" as="geometry" />
        </mxCell>
        <mxCell id="Ph2_vFc4Ig8jfNf9v6nr-29" value="&lt;span style=&quot;&quot;&gt;НЕТ CI/CD&lt;/span&gt;" style="rounded=0;whiteSpace=wrap;html=1;labelBackgroundColor=default;" parent="1" vertex="1">
          <mxGeometry x="80" y="880" width="120" height="40" as="geometry" />
        </mxCell>
        <mxCell id="Ph2_vFc4Ig8jfNf9v6nr-30" style="edgeStyle=orthogonalEdgeStyle;rounded=0;orthogonalLoop=1;jettySize=auto;html=1;exitX=1;exitY=0.5;exitDx=0;exitDy=0;entryX=0;entryY=0.5;entryDx=0;entryDy=0;" parent="1" source="Ph2_vFc4Ig8jfNf9v6nr-31" target="Ph2_vFc4Ig8jfNf9v6nr-32" edge="1">
          <mxGeometry relative="1" as="geometry" />
        </mxCell>
        <mxCell id="Ph2_vFc4Ig8jfNf9v6nr-31" value="&lt;span style=&quot;&quot;&gt;Нет мониторинга&lt;/span&gt;" style="rounded=0;whiteSpace=wrap;html=1;labelBackgroundColor=default;" parent="1" vertex="1">
          <mxGeometry x="80" y="960" width="120" height="40" as="geometry" />
        </mxCell>
        <mxCell id="Ph2_vFc4Ig8jfNf9v6nr-53" style="edgeStyle=orthogonalEdgeStyle;rounded=0;orthogonalLoop=1;jettySize=auto;html=1;exitX=1;exitY=0.5;exitDx=0;exitDy=0;entryX=0;entryY=0.5;entryDx=0;entryDy=0;" parent="1" source="Ph2_vFc4Ig8jfNf9v6nr-32" target="Ph2_vFc4Ig8jfNf9v6nr-47" edge="1">
          <mxGeometry relative="1" as="geometry" />
        </mxCell>
        <mxCell id="Ph2_vFc4Ig8jfNf9v6nr-32" value="&lt;span style=&quot;background-color: light-dark(#ffffff, var(--ge-dark-color, #121212));&quot;&gt;Процессы&lt;/span&gt;" style="ellipse;whiteSpace=wrap;html=1;" parent="1" vertex="1">
          <mxGeometry x="280" y="875" width="120" height="50" as="geometry" />
        </mxCell>
        <mxCell id="Ph2_vFc4Ig8jfNf9v6nr-33" style="edgeStyle=orthogonalEdgeStyle;rounded=0;orthogonalLoop=1;jettySize=auto;html=1;exitX=1;exitY=0.5;exitDx=0;exitDy=0;entryX=0;entryY=0.5;entryDx=0;entryDy=0;" parent="1" source="Ph2_vFc4Ig8jfNf9v6nr-34" target="Ph2_vFc4Ig8jfNf9v6nr-39" edge="1">
          <mxGeometry relative="1" as="geometry" />
        </mxCell>
        <mxCell id="Ph2_vFc4Ig8jfNf9v6nr-34" value="&lt;span style=&quot;&quot;&gt;Нет devops экспертизы&lt;/span&gt;" style="rounded=0;whiteSpace=wrap;html=1;labelBackgroundColor=default;" parent="1" vertex="1">
          <mxGeometry x="80" y="1040" width="120" height="40" as="geometry" />
        </mxCell>
        <mxCell id="Ph2_vFc4Ig8jfNf9v6nr-35" style="edgeStyle=orthogonalEdgeStyle;rounded=0;orthogonalLoop=1;jettySize=auto;html=1;exitX=1;exitY=0.5;exitDx=0;exitDy=0;entryX=0;entryY=0.5;entryDx=0;entryDy=0;" parent="1" source="Ph2_vFc4Ig8jfNf9v6nr-36" target="Ph2_vFc4Ig8jfNf9v6nr-39" edge="1">
          <mxGeometry relative="1" as="geometry" />
        </mxCell>
        <mxCell id="Ph2_vFc4Ig8jfNf9v6nr-36" value="&lt;span style=&quot;&quot;&gt;Сопротивление измененениям&lt;/span&gt;" style="rounded=0;whiteSpace=wrap;html=1;labelBackgroundColor=default;" parent="1" vertex="1">
          <mxGeometry x="80" y="1120" width="120" height="40" as="geometry" />
        </mxCell>
        <mxCell id="Ph2_vFc4Ig8jfNf9v6nr-37" style="edgeStyle=orthogonalEdgeStyle;rounded=0;orthogonalLoop=1;jettySize=auto;html=1;exitX=1;exitY=0.5;exitDx=0;exitDy=0;entryX=0;entryY=0.5;entryDx=0;entryDy=0;" parent="1" source="Ph2_vFc4Ig8jfNf9v6nr-38" target="Ph2_vFc4Ig8jfNf9v6nr-39" edge="1">
          <mxGeometry relative="1" as="geometry" />
        </mxCell>
        <mxCell id="Ph2_vFc4Ig8jfNf9v6nr-38" value="&lt;span style=&quot;&quot;&gt;Нет ответственности в команде&lt;/span&gt;" style="rounded=0;whiteSpace=wrap;html=1;labelBackgroundColor=default;" parent="1" vertex="1">
          <mxGeometry x="80" y="1200" width="120" height="40" as="geometry" />
        </mxCell>
        <mxCell id="Ph2_vFc4Ig8jfNf9v6nr-54" style="edgeStyle=orthogonalEdgeStyle;rounded=0;orthogonalLoop=1;jettySize=auto;html=1;exitX=1;exitY=0.5;exitDx=0;exitDy=0;entryX=0;entryY=0.5;entryDx=0;entryDy=0;" parent="1" source="Ph2_vFc4Ig8jfNf9v6nr-39" target="Ph2_vFc4Ig8jfNf9v6nr-47" edge="1">
          <mxGeometry relative="1" as="geometry" />
        </mxCell>
        <mxCell id="Ph2_vFc4Ig8jfNf9v6nr-39" value="&lt;span style=&quot;background-color: light-dark(#ffffff, var(--ge-dark-color, #121212));&quot;&gt;Команда&lt;/span&gt;" style="ellipse;whiteSpace=wrap;html=1;" parent="1" vertex="1">
          <mxGeometry x="280" y="1115" width="120" height="50" as="geometry" />
        </mxCell>
        <mxCell id="Ph2_vFc4Ig8jfNf9v6nr-40" style="edgeStyle=orthogonalEdgeStyle;rounded=0;orthogonalLoop=1;jettySize=auto;html=1;exitX=1;exitY=0.5;exitDx=0;exitDy=0;entryX=0;entryY=0.5;entryDx=0;entryDy=0;" parent="1" source="Ph2_vFc4Ig8jfNf9v6nr-41" target="Ph2_vFc4Ig8jfNf9v6nr-46" edge="1">
          <mxGeometry relative="1" as="geometry" />
        </mxCell>
        <mxCell id="Ph2_vFc4Ig8jfNf9v6nr-41" value="&lt;span style=&quot;&quot;&gt;Общая БД&lt;/span&gt;" style="rounded=0;whiteSpace=wrap;html=1;labelBackgroundColor=default;" parent="1" vertex="1">
          <mxGeometry x="80" y="1280" width="120" height="40" as="geometry" />
        </mxCell>
        <mxCell id="Ph2_vFc4Ig8jfNf9v6nr-42" style="edgeStyle=orthogonalEdgeStyle;rounded=0;orthogonalLoop=1;jettySize=auto;html=1;exitX=1;exitY=0.5;exitDx=0;exitDy=0;entryX=0;entryY=0.5;entryDx=0;entryDy=0;" parent="1" source="Ph2_vFc4Ig8jfNf9v6nr-43" target="Ph2_vFc4Ig8jfNf9v6nr-46" edge="1">
          <mxGeometry relative="1" as="geometry" />
        </mxCell>
        <mxCell id="Ph2_vFc4Ig8jfNf9v6nr-43" value="&lt;span style=&quot;&quot;&gt;Сложные транзакции&lt;/span&gt;" style="rounded=0;whiteSpace=wrap;html=1;labelBackgroundColor=default;" parent="1" vertex="1">
          <mxGeometry x="80" y="1360" width="120" height="40" as="geometry" />
        </mxCell>
        <mxCell id="Ph2_vFc4Ig8jfNf9v6nr-55" style="edgeStyle=orthogonalEdgeStyle;rounded=0;orthogonalLoop=1;jettySize=auto;html=1;exitX=1;exitY=0.5;exitDx=0;exitDy=0;entryX=0;entryY=0.5;entryDx=0;entryDy=0;" parent="1" source="Ph2_vFc4Ig8jfNf9v6nr-46" target="Ph2_vFc4Ig8jfNf9v6nr-47" edge="1">
          <mxGeometry relative="1" as="geometry" />
        </mxCell>
        <mxCell id="Ph2_vFc4Ig8jfNf9v6nr-46" value="&lt;span style=&quot;background-color: light-dark(#ffffff, var(--ge-dark-color, #121212));&quot;&gt;Данные&lt;/span&gt;" style="ellipse;whiteSpace=wrap;html=1;" parent="1" vertex="1">
          <mxGeometry x="280" y="1320" width="120" height="50" as="geometry" />
        </mxCell>
        <mxCell id="Ph2_vFc4Ig8jfNf9v6nr-47" value="&lt;span style=&quot;background-color: light-dark(#ffffff, var(--ge-dark-color, #121212));&quot;&gt;&lt;font style=&quot;font-size: 25px;&quot;&gt;Узкие места при миграции&lt;/font&gt;&lt;/span&gt;" style="ellipse;whiteSpace=wrap;html=1;aspect=fixed;" parent="1" vertex="1">
          <mxGeometry x="560" y="680" width="190" height="190" as="geometry" />
        </mxCell>
      </root>
    </mxGraphModel>
  </diagram>
</mxfile>
